<svg width="16" height="16" viewBox="0 0 16 16" fill="none" xmlns="http://www.w3.org/2000/svg">
<g clip-path="url(#clip0_8412_347)">
<path d="M11.7713 9.88535L10.8287 8.94268L11.7713 8.00002C12.019 7.75239 12.2154 7.45841 12.3494 7.13487C12.4834 6.81132 12.5524 6.46455 12.5524 6.11435C12.5524 5.76415 12.4834 5.41738 12.3494 5.09383C12.2154 4.77029 12.019 4.47631 11.7713 4.22868C11.5237 3.98105 11.2297 3.78462 10.9062 3.65061C10.5827 3.51659 10.2359 3.44761 9.88568 3.44761C9.53548 3.44761 9.18871 3.51659 8.86517 3.65061C8.54162 3.78462 8.24765 3.98105 8.00002 4.22868L7.05735 5.17135L6.11468 4.22868L7.05735 3.28602C7.80956 2.54596 8.82372 2.13312 9.87894 2.13742C10.9342 2.14171 11.9449 2.5628 12.6911 3.30896C13.4372 4.05511 13.8583 5.06588 13.8626 6.1211C13.8669 7.17631 13.4541 8.19048 12.714 8.94268L11.7713 9.88535ZM9.88535 11.7713L8.94268 12.714C8.57236 13.0904 8.13118 13.3898 7.64459 13.5948C7.158 13.7999 6.63563 13.9065 6.1076 13.9087C5.57958 13.9108 5.05635 13.8084 4.56811 13.6073C4.07986 13.4063 3.63626 13.1105 3.26289 12.7371C2.88952 12.3638 2.59376 11.9202 2.39269 11.4319C2.19161 10.9437 2.0892 10.4205 2.09135 9.89243C2.0935 9.36441 2.20017 8.84203 2.40522 8.35544C2.61026 7.86885 2.90962 7.42767 3.28602 7.05735L4.22868 6.11468L5.17135 7.05735L4.22868 8.00002C3.98105 8.24765 3.78462 8.54162 3.65061 8.86517C3.51659 9.18871 3.44761 9.53548 3.44761 9.88568C3.44761 10.2359 3.51659 10.5827 3.65061 10.9062C3.78462 11.2297 3.98105 11.5237 4.22868 11.7713C4.47631 12.019 4.77029 12.2154 5.09383 12.3494C5.41738 12.4834 5.76415 12.5524 6.11435 12.5524C6.46455 12.5524 6.81132 12.4834 7.13487 12.3494C7.45841 12.2154 7.75239 12.019 8.00002 11.7713L8.94268 10.8287L9.88535 11.7713ZM9.88535 5.17135L10.8287 6.11468L6.11468 10.828L5.17135 9.88535L9.88535 5.17202V5.17135ZM3.85002 1.52868L5.13802 1.18335L5.82802 3.76002L4.54068 4.10535L3.85002 1.52935V1.52868ZM10.172 12.2407L11.4593 11.8954L12.15 14.4714L10.862 14.8167L10.172 12.2407ZM1.52868 3.85002L4.10468 4.54068L3.75935 5.82802L1.18335 5.13802L1.52868 3.85002ZM12.2407 10.172L14.8167 10.862L14.4714 12.15L11.8954 11.4593L12.2407 10.172Z" fill="#ABB6B7"/>
</g>
<defs>
<clipPath id="clip0_8412_347">
<rect width="16" height="16" fill="white"/>
</clipPath>
</defs>
</svg>
