<svg width="149" height="25" viewBox="0 0 149 25" fill="none" xmlns="http://www.w3.org/2000/svg">
<g clip-path="url(#clip0_2014_6092)">
<path d="M18.4613 19.3411L12.8993 24.1418C4.75734 23.8187 0 21.8569 0 15.7637H6.20111C6.20111 18.2563 8.28393 19.3873 16.1418 19.3873C16.9939 19.3873 17.7749 19.3873 18.4613 19.3411Z" fill="#092326"/>
<path d="M29.7988 8.03191H23.5977C23.5977 5.44691 20.9468 4.80067 14.4854 4.80067C13.9173 4.80067 13.373 4.80067 12.8996 4.82375L18.367 0.0922852C25.5622 0.576971 29.7988 2.93116 29.7988 8.03191Z" fill="#092326"/>
<path d="M24.0469 18.1871C24.4492 17.8409 24.6386 17.3793 24.6386 16.8485C24.6386 14.8867 23.2658 14.5635 15.4316 14.1943C4.92282 13.7096 0.733521 12.117 0.733521 6.83164C0.733521 1.84629 5.75121 0.138351 14.2245 0.0229492L7.73936 5.5853C7.14765 6.02383 6.93463 6.43927 6.93463 7.1086C6.93463 8.93194 8.3784 9.25507 15.4079 9.67051C24.9226 10.1783 30.816 10.686 30.816 16.6408C30.816 22.6186 25.3013 24.0495 17.0884 24.188" fill="#092326"/>
<path d="M39.2899 5.40066V10.4552H56.5442V15.556H39.2899V23.8418H33.0888V0.322998H58.6033V5.40066H39.2899Z" fill="#092326"/>
<path d="M70.342 15.7875L61.0877 23.8656H52.5434L66.129 12.0947L52.5434 0.32373H61.0877L70.342 8.40184L74.3892 12.0947" fill="#092326"/>
<path d="M76.6851 10.2014L88.1169 0.322998H79.5727L72.4722 6.50852" fill="#092326"/>
<path d="M72.4483 17.633L79.5725 23.8647H88.1167L76.6376 13.9402" fill="#092326"/>
<path d="M130.365 15.7875L121.134 23.8656H112.59L126.176 12.0947L112.59 0.32373H121.134L130.365 8.40184L134.436 12.0947" fill="#092326"/>
<path d="M136.685 10.2475L148.164 0.322998H139.62L132.472 6.55468" fill="#092326"/>
<path d="M132.519 17.6792L139.619 23.8647H148.164L136.732 13.9863" fill="#092326"/>
<path d="M115.904 12.094C115.904 20.1028 110.413 23.8649 104.188 23.8649H86.6733V0.322998H104.188C110.436 0.322998 115.904 4.08509 115.904 12.094ZM109.703 12.094C109.703 6.37004 106.531 5.40066 101.845 5.40066H92.8745V18.7872H101.845C106.531 18.7872 109.703 17.8179 109.703 12.094Z" fill="#092326"/>
</g>
<defs>
<clipPath id="clip0_2014_6092">
<rect width="148.164" height="24.1882" fill="white"/>
</clipPath>
</defs>
</svg>
