<svg width="18" height="18" viewBox="0 0 18 18" fill="none" xmlns="http://www.w3.org/2000/svg">
<g clip-path="url(#clip0_8412_313)">
<path d="M16.1493 0.719971L9.95618 5.89212L11.1078 2.844L16.1493 0.719971Z" fill="#E17726" stroke="#E17726" stroke-width="0.25" stroke-linecap="round" stroke-linejoin="round"/>
<path d="M1.86401 0.719971L8.00196 5.94041L6.90548 2.844L1.86401 0.719971Z" fill="#E27625" stroke="#E27625" stroke-width="0.25" stroke-linecap="round" stroke-linejoin="round"/>
<path d="M13.9193 12.7125L12.2715 15.5537L15.7999 16.6502L16.8106 12.7746L13.9193 12.7125Z" fill="#E27625" stroke="#E27625" stroke-width="0.25" stroke-linecap="round" stroke-linejoin="round"/>
<path d="M1.20862 12.7746L2.21323 16.6502L5.73553 15.5537L4.09382 12.7125L1.20862 12.7746Z" fill="#E27625" stroke="#E27625" stroke-width="0.25" stroke-linecap="round" stroke-linejoin="round"/>
<path d="M5.54553 7.91272L4.56543 9.58163L8.05707 9.76093L7.94069 5.51978L5.54553 7.91272Z" fill="#E27625" stroke="#E27625" stroke-width="0.25" stroke-linecap="round" stroke-linejoin="round"/>
<path d="M12.4675 7.91282L10.0357 5.47156L9.95605 9.76101L13.4477 9.5817L12.4675 7.91282Z" fill="#E27625" stroke="#E27625" stroke-width="0.25" stroke-linecap="round" stroke-linejoin="round"/>
<path d="M5.7356 15.5537L7.84893 14.402L6.02964 12.8021L5.7356 15.5537Z" fill="#E27625" stroke="#E27625" stroke-width="0.25" stroke-linecap="round" stroke-linejoin="round"/>
<path d="M10.1644 14.402L12.2716 15.5537L11.9837 12.8021L10.1644 14.402Z" fill="#E27625" stroke="#E27625" stroke-width="0.25" stroke-linecap="round" stroke-linejoin="round"/>
<path d="M12.2716 15.5538L10.1644 14.4022L10.3359 15.9469L10.3175 16.602L12.2716 15.5538Z" fill="#D5BFB2" stroke="#D5BFB2" stroke-width="0.25" stroke-linecap="round" stroke-linejoin="round"/>
<path d="M5.7356 15.5538L7.69582 16.602L7.68356 15.9469L7.84893 14.4022L5.7356 15.5538Z" fill="#D5BFB2" stroke="#D5BFB2" stroke-width="0.25" stroke-linecap="round" stroke-linejoin="round"/>
<path d="M7.73244 11.7815L5.98047 11.2022L7.21784 10.5609L7.73244 11.7815Z" fill="#233447" stroke="#233447" stroke-width="0.25" stroke-linecap="round" stroke-linejoin="round"/>
<path d="M10.2808 11.7815L10.7954 10.5609L12.0389 11.2022L10.2808 11.7815Z" fill="#233447" stroke="#233447" stroke-width="0.25" stroke-linecap="round" stroke-linejoin="round"/>
<path d="M5.73555 15.5537L6.04186 12.7125L4.09387 12.7746L5.73555 15.5537Z" fill="#CC6228" stroke="#CC6228" stroke-width="0.25" stroke-linecap="round" stroke-linejoin="round"/>
<path d="M11.9714 12.7125L12.2716 15.5537L13.9194 12.7746L11.9714 12.7125Z" fill="#CC6228" stroke="#CC6228" stroke-width="0.25" stroke-linecap="round" stroke-linejoin="round"/>
<path d="M13.4477 9.5816L9.95605 9.76091L10.2807 11.7815L10.7953 10.5609L12.0388 11.2022L13.4477 9.5816Z" fill="#CC6228" stroke="#CC6228" stroke-width="0.25" stroke-linecap="round" stroke-linejoin="round"/>
<path d="M5.98046 11.2022L7.21783 10.5609L7.73243 11.7815L8.05707 9.76091L4.56543 9.5816L5.98046 11.2022Z" fill="#CC6228" stroke="#CC6228" stroke-width="0.25" stroke-linecap="round" stroke-linejoin="round"/>
<path d="M4.56555 9.5816L6.02962 12.8022L5.98058 11.2022L4.56555 9.5816Z" fill="#E27525" stroke="#E27525" stroke-width="0.25" stroke-linecap="round" stroke-linejoin="round"/>
<path d="M12.0389 11.2022L11.9838 12.8022L13.4478 9.5816L12.0389 11.2022Z" fill="#E27525" stroke="#E27525" stroke-width="0.25" stroke-linecap="round" stroke-linejoin="round"/>
<path d="M8.05736 9.76086L7.73267 11.7815L8.14307 14.1675L8.23497 11.0229L8.05736 9.76086Z" fill="#E27525" stroke="#E27525" stroke-width="0.25" stroke-linecap="round" stroke-linejoin="round"/>
<path d="M9.95609 9.76086L9.78455 11.016L9.87033 14.1675L10.2807 11.7815L9.95609 9.76086Z" fill="#E27525" stroke="#E27525" stroke-width="0.25" stroke-linecap="round" stroke-linejoin="round"/>
<path d="M10.2808 11.7816L9.87036 14.1676L10.1644 14.4021L11.9837 12.8022L12.0389 11.2023L10.2808 11.7816Z" fill="#F5841F" stroke="#F5841F" stroke-width="0.25" stroke-linecap="round" stroke-linejoin="round"/>
<path d="M5.98047 11.2023L6.02951 12.8022L7.84879 14.4021L8.14283 14.1676L7.73244 11.7816L5.98047 11.2023Z" fill="#F5841F" stroke="#F5841F" stroke-width="0.25" stroke-linecap="round" stroke-linejoin="round"/>
<path d="M10.3176 16.602L10.336 15.9469L10.1767 15.7951H7.83671L7.68356 15.9469L7.69582 16.602L5.7356 15.5538L6.42165 16.1882L7.8122 17.2709H10.1951L11.5917 16.1882L12.2717 15.5538L10.3176 16.602Z" fill="#C0AC9D" stroke="#C0AC9D" stroke-width="0.25" stroke-linecap="round" stroke-linejoin="round"/>
<path d="M10.1644 14.402L9.87032 14.1676H8.14286L7.84887 14.402L7.68347 15.9468L7.8366 15.7951H10.1766L10.3359 15.9468L10.1644 14.402Z" fill="#161616" stroke="#161616" stroke-width="0.25" stroke-linecap="round" stroke-linejoin="round"/>
<path d="M16.4126 6.23003L16.9333 3.37502L16.1492 0.719971L10.1644 5.71975L12.4677 7.91269L15.7204 8.98164L16.4371 8.03687L16.1247 7.78168L16.6209 7.2714L16.2411 6.94036L16.7373 6.51278L16.4126 6.23003Z" fill="#763E1A" stroke="#763E1A" stroke-width="0.25" stroke-linecap="round" stroke-linejoin="round"/>
<path d="M1.07996 3.37502L1.60677 6.23003L1.26985 6.51278L1.77216 6.94036L1.39237 7.2714L1.88855 7.78168L1.57614 8.03687L2.29284 8.98164L5.5456 7.91269L7.84883 5.71975L1.86405 0.719971L1.07996 3.37502Z" fill="#763E1A" stroke="#763E1A" stroke-width="0.25" stroke-linecap="round" stroke-linejoin="round"/>
<path d="M15.7204 8.98159L12.4677 7.91272L13.4478 9.5816L11.9838 12.8021L13.9195 12.7745H16.8108L15.7204 8.98159Z" fill="#F5841F" stroke="#F5841F" stroke-width="0.25" stroke-linecap="round" stroke-linejoin="round"/>
<path d="M5.5456 7.91272L2.29286 8.98159L1.20862 12.7745H4.09382L6.02952 12.8021L4.5655 9.5816L5.5456 7.91272Z" fill="#F5841F" stroke="#F5841F" stroke-width="0.25" stroke-linecap="round" stroke-linejoin="round"/>
<path d="M9.95611 9.76097L10.1644 5.71976L11.1077 2.84406H6.90552L7.84885 5.71976L8.05713 9.76097L8.13677 11.0299L8.14289 14.1676H9.87035L9.87647 11.0299L9.95611 9.76097Z" fill="#F5841F" stroke="#F5841F" stroke-width="0.25" stroke-linecap="round" stroke-linejoin="round"/>
</g>
<defs>
<clipPath id="clip0_8412_313">
<rect width="18" height="18" fill="white"/>
</clipPath>
</defs>
</svg>
